<svg xmlns="http://www.w3.org/2000/svg" width="1000" height="241" viewBox="0 0 1000 241">
  <metadata><?xpacket begin="﻿" id="W5M0MpCehiHzreSzNTczkc9d"?>
<x:xmpmeta xmlns:x="adobe:ns:meta/" x:xmptk="Adobe XMP Core 5.6-c142 79.160924, 2017/07/13-01:06:39        ">
   <rdf:RDF xmlns:rdf="http://www.w3.org/1999/02/22-rdf-syntax-ns#">
      <rdf:Description rdf:about=""/>
   </rdf:RDF>
</x:xmpmeta>
                                                                                                    
                                                                                                    
                                                                                                    
                                                                                                    
                                                                                                    
                                                                                                    
                                                                                                    
                                                                                                    
                                                                                                    
                                                                                                    
                                                                                                    
                                                                                                    
                                                                                                    
                                                                                                    
                                                                                                    
                                                                                                    
                                                                                                    
                                                                                                    
                                                                                                    
                                                                                                    
                           
<?xpacket end="w"?></metadata>
<defs>
    <style>
      .cls-1 {
        fill: #77c159;
      }

      .cls-1, .cls-2 {
        fill-rule: evenodd;
      }

      .cls-2 {
        fill: #fff;
      }
    </style>
  </defs>
  <path id="Rectangle_2_copy" data-name="Rectangle 2 copy" class="cls-1" d="M64,0h936L935,241H0Z"/>
  <path id="JumpGo_" data-name="JumpGo™" class="cls-2" d="M159.776,200.227q10.854-9.845,15.424-31.377L201.831,43.782H175.025L149.273,165.071q-2.461,11.513-7.866,16.831T127.3,187.219a65.277,65.277,0,0,1-14.414-1.758V207.7a58.692,58.692,0,0,0,16.436,2.373Q148.92,210.071,159.776,200.227ZM212.642,127.1a96.732,96.732,0,0,0-2.109,18.721q0,13.71,6.416,20.962t18.544,7.251q18.458,0,31.2-19.952h0.527l-1.846,18.194h20.215l20.83-98.262H279.966l-8.613,40.693q-3.78,17.931-10.371,27.95T246.3,152.678q-9.492,0-9.492-10.81a46.442,46.442,0,0,1,1.406-10.459l12.041-57.393H223.8ZM352.476,92.209h-0.527l1.845-18.193H333.579l-20.83,98.262H339.2l8.614-40.694q3.777-17.93,10.371-27.949t14.678-10.019q8.611,0,8.613,10.81a46.557,46.557,0,0,1-1.406,10.459l-12.041,57.393h26.455l8.437-40.869q3.867-18.1,10.415-27.95t14.634-9.843q8.613,0,8.613,10.81a46.5,46.5,0,0,1-1.406,10.459l-12.129,57.393h26.455l11.69-55.987a74.813,74.813,0,0,0,2.021-15.82q0-13.359-6.284-20.83T438.7,72.17a31.72,31.72,0,0,0-17.359,5.186,45.645,45.645,0,0,0-14.106,14.853H406.7q-3.78-20.039-23.027-20.039-18.37,0-31.2,20.039h0Zm163.476-3.252h-0.791l1.5-14.941H496.441l-30.059,141.5h26.455l6.328-29.883a176.65,176.65,0,0,0,3.78-25.928h0.7q4.482,7.824,9.756,11.075a23.476,23.476,0,0,0,12.568,3.252q12.567,0,23.027-9.1t16.48-24.609a88.514,88.514,0,0,0,6.02-32.3q0-16.962-7.426-26.411T543.814,72.17q-15.733,0-27.862,16.787h0Zm28.741,20.127a69.993,69.993,0,0,1-3.3,20.874q-3.3,10.593-8.657,16.656t-11.25,6.064a10.689,10.689,0,0,1-8.965-4.219q-3.253-4.218-3.252-11.25a67.077,67.077,0,0,1,3.384-21.84q3.381-9.888,8.964-15.821t11.558-5.933q11.513,0,11.514,15.468h0ZM640.845,122.8h23.467l-5.8,26.28a60.981,60.981,0,0,1-14.941,2.109q-13.184,0-19.556-7.075t-6.372-22.193a70.458,70.458,0,0,1,6.02-29.047q6.019-13.491,16.612-20.786a41.371,41.371,0,0,1,24.038-7.3,45.641,45.641,0,0,1,14.15,2.109,78.054,78.054,0,0,1,13.008,5.625l10.107-22.061a77.518,77.518,0,0,0-36.035-8.7q-22.325,0-39.375,10.327T599.712,81.443q-9.4,19.03-9.4,42.583,0,24.171,12.392,37.09t35.157,12.92a149.47,149.47,0,0,0,21.313-1.451,120.8,120.8,0,0,0,21.841-5.493l14.238-66.972H645.767Zm130.649,9.273q-2.945,9.624-8.217,15.029T751.411,152.5q-13.183,0-13.183-16.259a70.083,70.083,0,0,1,3.3-21.358q3.3-10.37,8.525-15.732t11.821-5.361q12.568,0,12.569,17.315A71.359,71.359,0,0,1,771.494,132.068ZM791.05,82.541Q781.03,72.172,763.8,72.17q-15.909,0-27.773,8.042t-18.15,22.676q-6.285,14.634-6.284,33.355,0,17.138,10.239,27.465t27.378,10.328q16.084,0,27.774-7.867t17.885-22.192q6.2-14.325,6.2-32.871Q801.07,92.913,791.05,82.541ZM831.933,44.1H843.49V35.444H810.737V44.1h11.44V77.314h9.756V44.1Zm41.638,33.217,10.105-30.72h0.348l-0.232,7.027V77.314h9.756V35.444H879.611l-9.873,29.617-9.291-29.617H846.1v41.87h9.466V53.04l-0.233-6.446h0.407l9.582,30.72h8.246Z"/>
</svg>
