<svg id="Layer_1" data-name="Layer 1" xmlns="http://www.w3.org/2000/svg" viewBox="0 0 147 37"><defs><style>.cls-1{fill:#33b4e3;}.cls-2{fill:#fff;}</style></defs><title>tabzilla-main</title><polygon class="cls-1" points="137 37 0 37 10 0 147 0 137 37"/><polygon class="cls-2" points="22.41 28.63 17.91 28.63 20.12 20.38 24.62 20.38 22.41 28.63"/><polygon class="cls-2" points="29.16 28.63 24.66 28.63 30.09 8.38 34.59 8.38 29.16 28.63"/><polygon class="cls-2" points="39.13 16.63 34.63 16.63 36.84 8.38 41.34 8.38 39.13 16.63"/><polygon class="cls-2" points="42.66 28.63 38.16 28.63 43.59 8.38 48.09 8.38 42.66 28.63"/><polygon class="cls-2" points="52.63 16.63 48.13 16.63 50.34 8.38 54.84 8.38 52.63 16.63"/><polygon class="cls-2" points="56.16 28.63 51.66 28.63 53.87 20.38 58.37 20.38 56.16 28.63"/><polygon class="cls-2" points="63.92 24.88 59.42 24.88 60.62 20.38 65.12 20.38 63.92 24.88"/><polygon class="cls-2" points="69.66 28.63 65.16 28.63 67.37 20.38 71.87 20.38 69.66 28.63"/><polygon class="cls-2" points="78.22 21.88 73.72 21.88 74.12 20.38 78.62 20.38 78.22 21.88"/><polygon class="cls-2" points="83.16 28.63 78.66 28.63 84.09 8.38 88.59 8.38 83.16 28.63"/><polygon class="cls-2" points="89.91 28.63 85.41 28.63 87.62 20.38 92.12 20.38 89.91 28.63"/><polygon class="cls-2" points="96.66 28.63 92.16 28.63 94.37 20.38 98.87 20.38 96.66 28.63"/><polygon class="cls-2" points="103.41 28.63 98.91 28.63 101.12 20.38 105.62 20.38 103.41 28.63"/><polygon class="cls-2" points="110.16 28.63 105.66 28.63 107.87 20.38 112.37 20.38 110.16 28.63"/><polygon class="cls-2" points="116.91 28.63 112.41 28.63 114.62 20.38 119.12 20.38 116.91 28.63"/><polygon class="cls-2" points="124.67 24.88 120.17 24.88 121.37 20.38 125.87 20.38 124.67 24.88"/><polygon class="cls-2" points="62.91 28.63 58.41 28.63 58.81 27.13 63.31 27.13 62.91 28.63"/><polygon class="cls-2" points="76.41 28.63 71.91 28.63 72.31 27.13 76.81 27.13 76.41 28.63"/><polygon class="cls-2" points="123.66 28.63 119.16 28.63 119.56 27.13 124.06 27.13 123.66 28.63"/></svg>