<svg id="Layer_1" data-name="Layer 1" xmlns="http://www.w3.org/2000/svg" viewBox="0 0 80 37"><defs><style>.cls-1{fill:#33b4e3;}.cls-2{fill:#fff;}</style></defs><title>tabzilla-jtm-tilt</title><polygon class="cls-1" points="70 37 0 37 10 0 80 0 70 37"/><polygon class="cls-2" points="16.3 28.96 11.8 28.96 14.01 20.71 18.51 20.71 16.3 28.96"/><polygon class="cls-2" points="23.05 28.96 18.55 28.96 23.97 8.71 28.47 8.71 23.05 28.96"/><polygon class="cls-2" points="33.01 16.96 28.51 16.96 30.72 8.71 35.22 8.71 33.01 16.96"/><polygon class="cls-2" points="36.55 28.96 32.05 28.96 37.47 8.71 41.97 8.71 36.55 28.96"/><polygon class="cls-2" points="46.51 16.96 42.01 16.96 44.22 8.71 48.72 8.71 46.51 16.96"/><polygon class="cls-2" points="50.05 28.96 45.55 28.96 47.76 20.71 52.26 20.71 50.05 28.96"/><polygon class="cls-2" points="56.55 28.96 52.05 28.96 54.26 20.71 58.76 20.71 56.55 28.96"/><polygon class="cls-2" points="63.3 28.96 58.8 28.96 61.01 20.71 65.51 20.71 63.3 28.96"/></svg>